<mxfile host="Electron" modified="2023-05-25T07:44:36.697Z" agent="Mozilla/5.0 (Macintosh; Intel Mac OS X 10_15_7) AppleWebKit/537.36 (KHTML, like Gecko) draw.io/21.2.8 Chrome/112.0.5615.165 Electron/24.2.0 Safari/537.36" etag="z79ol8ha4iW5PX3b7sWa" version="21.2.8" type="device" pages="2">
  <diagram name="Page-1" id="hagG0mQoI-y82EzhaQtB">
    <mxGraphModel dx="1434" dy="854" grid="0" gridSize="10" guides="1" tooltips="1" connect="1" arrows="1" fold="1" page="1" pageScale="1" pageWidth="1654" pageHeight="1169" math="0" shadow="0">
      <root>
        <mxCell id="0" />
        <mxCell id="1" parent="0" />
        <mxCell id="f2OS4W9iSREQMWqbqAz5-8" style="edgeStyle=orthogonalEdgeStyle;rounded=0;orthogonalLoop=1;jettySize=auto;html=1;exitX=0.5;exitY=1;exitDx=0;exitDy=0;" edge="1" parent="1" source="kKQXf41IfZRwiArYyt9g-5" target="kKQXf41IfZRwiArYyt9g-8">
          <mxGeometry relative="1" as="geometry" />
        </mxCell>
        <mxCell id="f2OS4W9iSREQMWqbqAz5-12" style="edgeStyle=orthogonalEdgeStyle;rounded=0;orthogonalLoop=1;jettySize=auto;html=1;exitX=1;exitY=0.5;exitDx=0;exitDy=0;" edge="1" parent="1" source="kKQXf41IfZRwiArYyt9g-5" target="f2OS4W9iSREQMWqbqAz5-3">
          <mxGeometry relative="1" as="geometry" />
        </mxCell>
        <mxCell id="f2OS4W9iSREQMWqbqAz5-14" style="edgeStyle=orthogonalEdgeStyle;rounded=0;orthogonalLoop=1;jettySize=auto;html=1;exitX=0;exitY=0.5;exitDx=0;exitDy=0;entryX=0.5;entryY=0;entryDx=0;entryDy=0;" edge="1" parent="1" source="kKQXf41IfZRwiArYyt9g-5" target="f2OS4W9iSREQMWqbqAz5-4">
          <mxGeometry relative="1" as="geometry" />
        </mxCell>
        <mxCell id="kKQXf41IfZRwiArYyt9g-5" value="&lt;b&gt;ExampleGen&lt;/b&gt;" style="rounded=1;whiteSpace=wrap;html=1;" parent="1" vertex="1">
          <mxGeometry x="628" y="321" width="171" height="49" as="geometry" />
        </mxCell>
        <mxCell id="f2OS4W9iSREQMWqbqAz5-9" style="edgeStyle=orthogonalEdgeStyle;rounded=0;orthogonalLoop=1;jettySize=auto;html=1;exitX=0.5;exitY=1;exitDx=0;exitDy=0;" edge="1" parent="1" source="kKQXf41IfZRwiArYyt9g-8" target="kKQXf41IfZRwiArYyt9g-16">
          <mxGeometry relative="1" as="geometry" />
        </mxCell>
        <mxCell id="f2OS4W9iSREQMWqbqAz5-13" style="edgeStyle=orthogonalEdgeStyle;rounded=0;orthogonalLoop=1;jettySize=auto;html=1;exitX=1;exitY=0.5;exitDx=0;exitDy=0;" edge="1" parent="1" source="kKQXf41IfZRwiArYyt9g-8" target="f2OS4W9iSREQMWqbqAz5-3">
          <mxGeometry relative="1" as="geometry" />
        </mxCell>
        <mxCell id="kKQXf41IfZRwiArYyt9g-8" value="&lt;b&gt;StatisticsGen&lt;/b&gt;" style="rounded=1;whiteSpace=wrap;html=1;" parent="1" vertex="1">
          <mxGeometry x="628" y="421" width="171" height="49" as="geometry" />
        </mxCell>
        <mxCell id="f2OS4W9iSREQMWqbqAz5-15" style="edgeStyle=orthogonalEdgeStyle;rounded=0;orthogonalLoop=1;jettySize=auto;html=1;exitX=0;exitY=0.5;exitDx=0;exitDy=0;entryX=1;entryY=0.5;entryDx=0;entryDy=0;" edge="1" parent="1" source="kKQXf41IfZRwiArYyt9g-16" target="f2OS4W9iSREQMWqbqAz5-4">
          <mxGeometry relative="1" as="geometry" />
        </mxCell>
        <mxCell id="kKQXf41IfZRwiArYyt9g-16" value="&lt;b&gt;SchemaGen/Importer&lt;/b&gt;" style="rounded=1;whiteSpace=wrap;html=1;" parent="1" vertex="1">
          <mxGeometry x="628" y="522" width="171" height="49" as="geometry" />
        </mxCell>
        <mxCell id="f2OS4W9iSREQMWqbqAz5-3" value="&lt;b&gt;Example Validator&lt;/b&gt;" style="rounded=1;whiteSpace=wrap;html=1;" vertex="1" parent="1">
          <mxGeometry x="859" y="421" width="171" height="49" as="geometry" />
        </mxCell>
        <mxCell id="f2OS4W9iSREQMWqbqAz5-16" style="edgeStyle=orthogonalEdgeStyle;rounded=0;orthogonalLoop=1;jettySize=auto;html=1;exitX=0.5;exitY=1;exitDx=0;exitDy=0;entryX=0;entryY=0.5;entryDx=0;entryDy=0;" edge="1" parent="1" source="f2OS4W9iSREQMWqbqAz5-4" target="f2OS4W9iSREQMWqbqAz5-5">
          <mxGeometry relative="1" as="geometry" />
        </mxCell>
        <mxCell id="f2OS4W9iSREQMWqbqAz5-17" style="edgeStyle=orthogonalEdgeStyle;rounded=0;orthogonalLoop=1;jettySize=auto;html=1;exitX=0.5;exitY=1;exitDx=0;exitDy=0;entryX=0;entryY=0.5;entryDx=0;entryDy=0;" edge="1" parent="1" source="f2OS4W9iSREQMWqbqAz5-4" target="f2OS4W9iSREQMWqbqAz5-6">
          <mxGeometry relative="1" as="geometry" />
        </mxCell>
        <mxCell id="f2OS4W9iSREQMWqbqAz5-4" value="&lt;b&gt;Transform&lt;/b&gt;" style="rounded=1;whiteSpace=wrap;html=1;" vertex="1" parent="1">
          <mxGeometry x="352" y="522" width="171" height="49" as="geometry" />
        </mxCell>
        <mxCell id="f2OS4W9iSREQMWqbqAz5-18" style="edgeStyle=orthogonalEdgeStyle;rounded=0;orthogonalLoop=1;jettySize=auto;html=1;exitX=0.5;exitY=1;exitDx=0;exitDy=0;" edge="1" parent="1" source="f2OS4W9iSREQMWqbqAz5-5" target="f2OS4W9iSREQMWqbqAz5-6">
          <mxGeometry relative="1" as="geometry" />
        </mxCell>
        <mxCell id="f2OS4W9iSREQMWqbqAz5-20" style="edgeStyle=orthogonalEdgeStyle;rounded=0;orthogonalLoop=1;jettySize=auto;html=1;exitX=1;exitY=0.5;exitDx=0;exitDy=0;entryX=1;entryY=0.5;entryDx=0;entryDy=0;" edge="1" parent="1" source="f2OS4W9iSREQMWqbqAz5-5" target="f2OS4W9iSREQMWqbqAz5-7">
          <mxGeometry relative="1" as="geometry">
            <Array as="points">
              <mxPoint x="913" y="646" />
              <mxPoint x="913" y="850" />
            </Array>
          </mxGeometry>
        </mxCell>
        <mxCell id="f2OS4W9iSREQMWqbqAz5-5" value="&lt;b&gt;Trainer&lt;/b&gt;" style="rounded=1;whiteSpace=wrap;html=1;" vertex="1" parent="1">
          <mxGeometry x="630" y="621" width="171" height="49" as="geometry" />
        </mxCell>
        <mxCell id="f2OS4W9iSREQMWqbqAz5-19" style="edgeStyle=orthogonalEdgeStyle;rounded=0;orthogonalLoop=1;jettySize=auto;html=1;exitX=0.5;exitY=1;exitDx=0;exitDy=0;entryX=0.5;entryY=0;entryDx=0;entryDy=0;" edge="1" parent="1" source="f2OS4W9iSREQMWqbqAz5-6" target="f2OS4W9iSREQMWqbqAz5-7">
          <mxGeometry relative="1" as="geometry" />
        </mxCell>
        <mxCell id="f2OS4W9iSREQMWqbqAz5-6" value="&lt;b&gt;Evaluator&lt;/b&gt;" style="rounded=1;whiteSpace=wrap;html=1;" vertex="1" parent="1">
          <mxGeometry x="630" y="719" width="171" height="49" as="geometry" />
        </mxCell>
        <mxCell id="f2OS4W9iSREQMWqbqAz5-7" value="&lt;b&gt;Pusher&lt;/b&gt;" style="rounded=1;whiteSpace=wrap;html=1;" vertex="1" parent="1">
          <mxGeometry x="630" y="825" width="171" height="49" as="geometry" />
        </mxCell>
        <mxCell id="fF624x1Kx0yJqc2CSl7f-1" style="edgeStyle=orthogonalEdgeStyle;rounded=0;orthogonalLoop=1;jettySize=auto;html=1;exitX=0.5;exitY=1;exitDx=0;exitDy=0;" edge="1" parent="1" source="_qsD-6DEfDqgzLElVvNg-1" target="kKQXf41IfZRwiArYyt9g-5">
          <mxGeometry relative="1" as="geometry" />
        </mxCell>
        <mxCell id="_qsD-6DEfDqgzLElVvNg-1" value="" style="whiteSpace=wrap;html=1;aspect=fixed;fillColor=none;" vertex="1" parent="1">
          <mxGeometry x="612" y="78" width="203" height="203" as="geometry" />
        </mxCell>
        <mxCell id="_qsD-6DEfDqgzLElVvNg-3" value="" style="image;aspect=fixed;html=1;points=[];align=center;fontSize=12;image=img/lib/azure2/general/Folder_Blank.svg;" vertex="1" parent="1">
          <mxGeometry x="635" y="87.25" width="24.64" height="20" as="geometry" />
        </mxCell>
        <mxCell id="_qsD-6DEfDqgzLElVvNg-4" value="&lt;b&gt;dogs_vs_cats&lt;/b&gt;" style="text;html=1;align=center;verticalAlign=middle;resizable=0;points=[];autosize=1;strokeColor=none;fillColor=none;" vertex="1" parent="1">
          <mxGeometry x="655" y="87.25" width="97" height="26" as="geometry" />
        </mxCell>
        <mxCell id="_qsD-6DEfDqgzLElVvNg-5" value="" style="image;aspect=fixed;html=1;points=[];align=center;fontSize=12;image=img/lib/azure2/general/Folder_Blank.svg;" vertex="1" parent="1">
          <mxGeometry x="658.5" y="114.75" width="24.64" height="20" as="geometry" />
        </mxCell>
        <mxCell id="_qsD-6DEfDqgzLElVvNg-6" value="&lt;b&gt;train&lt;/b&gt;" style="text;html=1;align=center;verticalAlign=middle;resizable=0;points=[];autosize=1;strokeColor=none;fillColor=none;" vertex="1" parent="1">
          <mxGeometry x="681.5" y="113.25" width="44" height="26" as="geometry" />
        </mxCell>
        <mxCell id="_qsD-6DEfDqgzLElVvNg-8" value="" style="image;aspect=fixed;html=1;points=[];align=center;fontSize=12;image=img/lib/azure2/general/Folder_Blank.svg;" vertex="1" parent="1">
          <mxGeometry x="689.5" y="140.75" width="24.64" height="20" as="geometry" />
        </mxCell>
        <mxCell id="_qsD-6DEfDqgzLElVvNg-9" value="&lt;b&gt;dogs&lt;/b&gt;" style="text;html=1;align=center;verticalAlign=middle;resizable=0;points=[];autosize=1;strokeColor=none;fillColor=none;" vertex="1" parent="1">
          <mxGeometry x="716.5" y="139.25" width="47" height="26" as="geometry" />
        </mxCell>
        <mxCell id="_qsD-6DEfDqgzLElVvNg-10" value="" style="image;aspect=fixed;html=1;points=[];align=center;fontSize=12;image=img/lib/azure2/general/Folder_Blank.svg;" vertex="1" parent="1">
          <mxGeometry x="689.5" y="170.75" width="24.64" height="20" as="geometry" />
        </mxCell>
        <mxCell id="_qsD-6DEfDqgzLElVvNg-11" value="&lt;b&gt;cats&lt;/b&gt;" style="text;html=1;align=center;verticalAlign=middle;resizable=0;points=[];autosize=1;strokeColor=none;fillColor=none;" vertex="1" parent="1">
          <mxGeometry x="716.5" y="170.75" width="42" height="26" as="geometry" />
        </mxCell>
        <mxCell id="_qsD-6DEfDqgzLElVvNg-16" value="" style="image;aspect=fixed;html=1;points=[];align=center;fontSize=12;image=img/lib/azure2/general/Folder_Blank.svg;" vertex="1" parent="1">
          <mxGeometry x="658.5" y="200.5" width="24.64" height="20" as="geometry" />
        </mxCell>
        <mxCell id="_qsD-6DEfDqgzLElVvNg-17" value="&lt;b&gt;test&lt;/b&gt;" style="text;html=1;align=center;verticalAlign=middle;resizable=0;points=[];autosize=1;strokeColor=none;fillColor=none;" vertex="1" parent="1">
          <mxGeometry x="682.3199999999999" y="199" width="39" height="26" as="geometry" />
        </mxCell>
        <mxCell id="_qsD-6DEfDqgzLElVvNg-18" value="" style="image;aspect=fixed;html=1;points=[];align=center;fontSize=12;image=img/lib/azure2/general/Folder_Blank.svg;" vertex="1" parent="1">
          <mxGeometry x="689.5" y="226.5" width="24.64" height="20" as="geometry" />
        </mxCell>
        <mxCell id="_qsD-6DEfDqgzLElVvNg-19" value="&lt;b&gt;dogs&lt;/b&gt;" style="text;html=1;align=center;verticalAlign=middle;resizable=0;points=[];autosize=1;strokeColor=none;fillColor=none;" vertex="1" parent="1">
          <mxGeometry x="716.5" y="225" width="47" height="26" as="geometry" />
        </mxCell>
        <mxCell id="_qsD-6DEfDqgzLElVvNg-20" value="" style="image;aspect=fixed;html=1;points=[];align=center;fontSize=12;image=img/lib/azure2/general/Folder_Blank.svg;" vertex="1" parent="1">
          <mxGeometry x="689.5" y="256.5" width="24.64" height="20" as="geometry" />
        </mxCell>
        <mxCell id="_qsD-6DEfDqgzLElVvNg-21" value="&lt;b&gt;cats&lt;/b&gt;" style="text;html=1;align=center;verticalAlign=middle;resizable=0;points=[];autosize=1;strokeColor=none;fillColor=none;" vertex="1" parent="1">
          <mxGeometry x="719.5" y="255" width="42" height="26" as="geometry" />
        </mxCell>
      </root>
    </mxGraphModel>
  </diagram>
  <diagram id="fjvyFa6RpyhrztvJ_0KV" name="Page-2">
    <mxGraphModel dx="1434" dy="854" grid="0" gridSize="10" guides="1" tooltips="1" connect="1" arrows="1" fold="1" page="1" pageScale="1" pageWidth="1654" pageHeight="1169" math="0" shadow="0">
      <root>
        <mxCell id="0" />
        <mxCell id="1" parent="0" />
        <mxCell id="yfT8k6A99s7zUmAO7tGp-1" value="" style="image;aspect=fixed;html=1;points=[];align=center;fontSize=12;image=img/lib/azure2/general/Folder_Blank.svg;" vertex="1" parent="1">
          <mxGeometry x="191" y="243" width="24.64" height="20" as="geometry" />
        </mxCell>
        <mxCell id="yfT8k6A99s7zUmAO7tGp-2" value="&lt;b&gt;dogs_vs_cats&lt;/b&gt;" style="text;html=1;align=center;verticalAlign=middle;resizable=0;points=[];autosize=1;strokeColor=none;fillColor=none;" vertex="1" parent="1">
          <mxGeometry x="211" y="243" width="97" height="26" as="geometry" />
        </mxCell>
        <mxCell id="yfT8k6A99s7zUmAO7tGp-3" value="" style="image;aspect=fixed;html=1;points=[];align=center;fontSize=12;image=img/lib/azure2/general/Folder_Blank.svg;" vertex="1" parent="1">
          <mxGeometry x="214.5" y="270.5" width="24.64" height="20" as="geometry" />
        </mxCell>
        <mxCell id="yfT8k6A99s7zUmAO7tGp-4" value="&lt;b&gt;train&lt;/b&gt;" style="text;html=1;align=center;verticalAlign=middle;resizable=0;points=[];autosize=1;strokeColor=none;fillColor=none;" vertex="1" parent="1">
          <mxGeometry x="237.5" y="269" width="44" height="26" as="geometry" />
        </mxCell>
        <mxCell id="yfT8k6A99s7zUmAO7tGp-5" value="" style="image;aspect=fixed;html=1;points=[];align=center;fontSize=12;image=img/lib/azure2/general/Folder_Blank.svg;" vertex="1" parent="1">
          <mxGeometry x="245.5" y="296.5" width="24.64" height="20" as="geometry" />
        </mxCell>
        <mxCell id="yfT8k6A99s7zUmAO7tGp-6" value="&lt;b&gt;dogs&lt;/b&gt;" style="text;html=1;align=center;verticalAlign=middle;resizable=0;points=[];autosize=1;strokeColor=none;fillColor=none;" vertex="1" parent="1">
          <mxGeometry x="272.5" y="295" width="47" height="26" as="geometry" />
        </mxCell>
        <mxCell id="yfT8k6A99s7zUmAO7tGp-7" value="" style="image;aspect=fixed;html=1;points=[];align=center;fontSize=12;image=img/lib/azure2/general/Folder_Blank.svg;" vertex="1" parent="1">
          <mxGeometry x="245.5" y="326.5" width="24.64" height="20" as="geometry" />
        </mxCell>
        <mxCell id="yfT8k6A99s7zUmAO7tGp-8" value="&lt;b&gt;cats&lt;/b&gt;" style="text;html=1;align=center;verticalAlign=middle;resizable=0;points=[];autosize=1;strokeColor=none;fillColor=none;" vertex="1" parent="1">
          <mxGeometry x="272.5" y="326.5" width="42" height="26" as="geometry" />
        </mxCell>
        <mxCell id="yfT8k6A99s7zUmAO7tGp-9" value="" style="image;aspect=fixed;html=1;points=[];align=center;fontSize=12;image=img/lib/azure2/general/Folder_Blank.svg;" vertex="1" parent="1">
          <mxGeometry x="214.5" y="356.25" width="24.64" height="20" as="geometry" />
        </mxCell>
        <mxCell id="yfT8k6A99s7zUmAO7tGp-10" value="&lt;b&gt;test&lt;/b&gt;" style="text;html=1;align=center;verticalAlign=middle;resizable=0;points=[];autosize=1;strokeColor=none;fillColor=none;" vertex="1" parent="1">
          <mxGeometry x="238.32" y="354.75" width="39" height="26" as="geometry" />
        </mxCell>
        <mxCell id="yfT8k6A99s7zUmAO7tGp-11" value="" style="image;aspect=fixed;html=1;points=[];align=center;fontSize=12;image=img/lib/azure2/general/Folder_Blank.svg;" vertex="1" parent="1">
          <mxGeometry x="245.5" y="382.25" width="24.64" height="20" as="geometry" />
        </mxCell>
        <mxCell id="yfT8k6A99s7zUmAO7tGp-12" value="&lt;b&gt;dogs&lt;/b&gt;" style="text;html=1;align=center;verticalAlign=middle;resizable=0;points=[];autosize=1;strokeColor=none;fillColor=none;" vertex="1" parent="1">
          <mxGeometry x="272.5" y="380.75" width="47" height="26" as="geometry" />
        </mxCell>
        <mxCell id="yfT8k6A99s7zUmAO7tGp-13" value="" style="image;aspect=fixed;html=1;points=[];align=center;fontSize=12;image=img/lib/azure2/general/Folder_Blank.svg;" vertex="1" parent="1">
          <mxGeometry x="245.5" y="412.25" width="24.64" height="20" as="geometry" />
        </mxCell>
        <mxCell id="yfT8k6A99s7zUmAO7tGp-14" value="&lt;b&gt;cats&lt;/b&gt;" style="text;html=1;align=center;verticalAlign=middle;resizable=0;points=[];autosize=1;strokeColor=none;fillColor=none;" vertex="1" parent="1">
          <mxGeometry x="275.5" y="410.75" width="42" height="26" as="geometry" />
        </mxCell>
      </root>
    </mxGraphModel>
  </diagram>
</mxfile>
